<?xml version="1.0" encoding="utf-8"?>
<!-- Generator: Adobe Illustrator 26.0.1, SVG Export Plug-In . SVG Version: 6.00 Build 0)  -->
<svg version="1.1" id="Слой_1" xmlns="http://www.w3.org/2000/svg" xmlns:xlink="http://www.w3.org/1999/xlink" x="0px" y="0px"
	 viewBox="0 0 50 50" style="enable-background:new 0 0 50 50;" xml:space="preserve">
<path d="M26,50c-0.9,0-1.8-0.2-2.6-0.5c-0.8-0.3-1.6-0.8-2.2-1.5L0.6,27.4C0.2,27,0,26.5,0,26V1.9C0,0.9,0.9,0,1.9,0H26
	c0.5,0,1,0.2,1.4,0.6L48,21.2c1.3,1.3,2,3,2,4.8s-0.7,3.5-2,4.8c0,0,0,0,0,0L30.8,48c-0.6,0.6-1.4,1.1-2.2,1.5
	C27.8,49.8,26.9,50,26,50z M3.9,25.2L24,45.3c0.3,0.3,0.6,0.5,0.9,0.6c0.7,0.3,1.5,0.3,2.2,0c0.4-0.1,0.7-0.4,0.9-0.6L45.3,28
	c0.5-0.5,0.8-1.3,0.8-2s-0.3-1.5-0.8-2L25.2,3.9H3.9V25.2z M46.7,29.4L46.7,29.4L46.7,29.4z"/>
<path d="M14,15.9C12.9,15.9,12,15,12,14S12.9,12,14,12h0c1.1,0,1.9,0.9,1.9,1.9S15,15.9,14,15.9z"/>
</svg>
