<?xml version="1.0" encoding="utf-8"?>
<!-- Generator: Adobe Illustrator 26.0.1, SVG Export Plug-In . SVG Version: 6.00 Build 0)  -->
<svg version="1.1" id="Слой_1" xmlns="http://www.w3.org/2000/svg" xmlns:xlink="http://www.w3.org/1999/xlink" x="0px" y="0px"
	 viewBox="0 0 50 50" style="enable-background:new 0 0 50 50;" xml:space="preserve">
<style type="text/css">
	.st0{fill:#6398FF;}
</style>
<g>
	<path class="st0" d="M47,29.3c-1.7,0-3,1.4-3,3v9.8c0,0.5-0.2,1-0.5,1.3s-0.8,0.5-1.3,0.5H7.9c-0.5,0-0.9-0.2-1.3-0.5
		c-0.3-0.3-0.5-0.8-0.5-1.3v-9.8c0-1.7-1.4-3-3-3s-3,1.4-3,3v9.8c0,2.1,0.8,4.1,2.3,5.6C3.8,49.2,5.8,50,7.9,50h34.1
		c2.1,0,4.1-0.8,5.6-2.3c1.5-1.5,2.3-3.5,2.3-5.6v-9.8C50,30.6,48.6,29.3,47,29.3z"/>
	<path class="st0" d="M22.8,34.5c0.1,0.1,0.3,0.3,0.5,0.4c0.1,0,0.2,0.1,0.2,0.1c0.1,0.1,0.2,0.1,0.3,0.2c0.1,0,0.2,0.1,0.3,0.1
		c0.1,0,0.2,0.1,0.3,0.1c0.2,0,0.4,0.1,0.6,0.1c0.2,0,0.4,0,0.6-0.1c0.1,0,0.2-0.1,0.3-0.1c0.1,0,0.2-0.1,0.3-0.1
		c0.1,0,0.2-0.1,0.3-0.2c0.1,0,0.1-0.1,0.2-0.1c0.2-0.1,0.3-0.2,0.5-0.4l12.2-12.2c1.2-1.2,1.2-3.1,0-4.3c-1.2-1.2-3.1-1.2-4.3,0
		l-7,7V3c0-1.7-1.4-3-3-3s-3,1.4-3,3V25l-7-7c-1.2-1.2-3.1-1.2-4.3,0c-1.2,1.2-1.2,3.1,0,4.3L22.8,34.5z"/>
</g>
</svg>
