<?xml version="1.0" encoding="utf-8"?>
<!-- Generator: Adobe Illustrator 26.0.1, SVG Export Plug-In . SVG Version: 6.00 Build 0)  -->
<svg version="1.1" id="Слой_1" xmlns="http://www.w3.org/2000/svg" xmlns:xlink="http://www.w3.org/1999/xlink" x="0px" y="0px"
	 viewBox="0 0 50 56" style="enable-background:new 0 0 50 56;" xml:space="preserve">
<path d="M47.7,55.8c-1.3,0-2.3-1-2.3-2.3v-5.7c0-2.4-0.9-4.7-2.7-6.4c-1.7-1.7-4-2.7-6.4-2.7H13.6c-2.4,0-4.7,0.9-6.4,2.7
	c-1.7,1.7-2.7,4-2.7,6.4v5.7c0,1.3-1,2.3-2.3,2.3S0,54.8,0,53.6v-5.7c0-3.6,1.4-7.1,4-9.6c2.6-2.6,6-4,9.6-4h22.7
	c3.6,0,7.1,1.4,9.6,4c2.6,2.6,4,6,4,9.6v5.7C50,54.8,49,55.8,47.7,55.8z"/>
<path d="M25,27.4c-7.5,0-13.6-6.1-13.6-13.6S17.5,0.2,25,0.2s13.6,6.1,13.6,13.6S32.5,27.4,25,27.4z M25,4.7c-5,0-9.1,4.1-9.1,9.1
	s4.1,9.1,9.1,9.1c5,0,9.1-4.1,9.1-9.1S30,4.7,25,4.7z"/>
</svg>
