<?xml version="1.0" encoding="utf-8"?>
<!-- Generator: Adobe Illustrator 26.0.1, SVG Export Plug-In . SVG Version: 6.00 Build 0)  -->
<svg version="1.1" id="Слой_1" xmlns="http://www.w3.org/2000/svg" xmlns:xlink="http://www.w3.org/1999/xlink" x="0px" y="0px"
	 viewBox="0 0 50 49" style="enable-background:new 0 0 50 49;" xml:space="preserve">
<path d="M49.4,45.2l-9.6-9.3c3.2-3.8,5.2-8.6,5.2-13.9c0-12-10.1-21.8-22.4-21.8S0,10,0,22s10.1,21.8,22.4,21.8
	c5.5,0,10.5-1.9,14.4-5.1l9.7,9.4c0.4,0.4,0.9,0.6,1.4,0.6c0.5,0,1.1-0.2,1.5-0.6C50.2,47.3,50.2,46,49.4,45.2z M4.1,22
	c0-9.8,8.2-17.7,18.4-17.7c10.1,0,18.4,7.9,18.4,17.7c0,4.9-2,9.3-5.4,12.5c0,0,0,0-0.1,0c0,0,0,0,0,0c-3.3,3.2-7.9,5.1-12.9,5.1
	C12.3,39.7,4.1,31.8,4.1,22z"/>
</svg>
