<?xml version="1.0" encoding="utf-8"?>
<!-- Generator: Adobe Illustrator 26.0.1, SVG Export Plug-In . SVG Version: 6.00 Build 0)  -->
<svg version="1.1" id="Слой_1" xmlns="http://www.w3.org/2000/svg" xmlns:xlink="http://www.w3.org/1999/xlink" x="0px" y="0px"
	 viewBox="0 0 94 100" style="enable-background:new 0 0 94 100;" xml:space="preserve">
<g>
	<path d="M64.1,78.8c-7.2-3.7-13-6.6-19.6-10C39.1,78,34,86.7,28.6,96c33.2,14.6,63.6-13.6,65-37.4c-9.5,0-19,0-29.5,0
		C64.1,65.3,64.1,71.4,64.1,78.8z"/>
	<path d="M63.7,21.5c0.3,7.5,0.6,13.6,0.9,20.3c10,0,19.3,0,29.2,0C88.6,8.6,57-8.1,31.1,3.8c4.6,9,9.3,18,14.1,27.4
		C51.9,27.7,57.4,24.9,63.7,21.5z"/>
	<path d="M15.2,49c6.5-4,12.4-7.5,18.1-11c-5.3-9.8-10-18.5-14.7-27.2C-5.4,28.6-6.3,68,17.6,86.7c5-8.2,9.9-16.2,14.7-24.2
		C26.2,57.7,20.9,53.6,15.2,49z"/>
</g>
</svg>
