<?xml version="1.0" encoding="utf-8"?>
<!-- Generator: Adobe Illustrator 26.0.1, SVG Export Plug-In . SVG Version: 6.00 Build 0)  -->
<svg version="1.1" id="Слой_1" xmlns="http://www.w3.org/2000/svg" xmlns:xlink="http://www.w3.org/1999/xlink" x="0px" y="0px"
	 viewBox="0 0 50 50" style="enable-background:new 0 0 50 50;" xml:space="preserve">
<style type="text/css">
	.st0{fill:#6398FF;}
</style>
<g>
	<path class="st0" d="M25,0C11.2,0,0,11.2,0,25c0,13.8,11.2,25,25,25c13.8,0,25-11.2,25-25C50,11.2,38.8,0,25,0z M25,46.3
		C13.3,46.3,3.7,36.7,3.7,25C3.7,13.3,13.3,3.7,25,3.7c11.7,0,21.3,9.6,21.3,21.3C46.3,36.7,36.7,46.3,25,46.3z"/>
	<path class="st0" d="M34.3,23.1h-7.4v-7.4c0-1-0.8-1.9-1.9-1.9s-1.9,0.8-1.9,1.9v7.4h-7.4c-1,0-1.9,0.8-1.9,1.9
		c0,1,0.8,1.9,1.9,1.9h7.4v7.4c0,1,0.8,1.9,1.9,1.9s1.9-0.8,1.9-1.9v-7.4h7.4c1,0,1.9-0.8,1.9-1.9C36.1,24,35.3,23.1,34.3,23.1z"/>
</g>
</svg>
